<?xml version="1.0" encoding="utf-8"?>
<!-- Generator: Adobe Illustrator 16.0.0, SVG Export Plug-In . SVG Version: 6.00 Build 0)  -->
<!DOCTYPE svg PUBLIC "-//W3C//DTD SVG 1.1//EN" "http://www.w3.org/Graphics/SVG/1.1/DTD/svg11.dtd">
<svg version="1.1" id="Layer_1" xmlns="http://www.w3.org/2000/svg" xmlns:xlink="http://www.w3.org/1999/xlink" x="0px" y="0px"
	 width="2571.258px" height="816.081px" viewBox="-31.809 -47.722 2571.258 816.081"
	 enable-background="new -31.809 -47.722 2571.258 816.081" xml:space="preserve">
<rect x="-31.809" y="-47.722" fill="#FFFFFF" stroke="#000000" stroke-miterlimit="10" width="2571.258" height="816.081"/>
<path fill="#222222" d="M16.27,564.825V286.598h347.383v-16.274H16.27V16.5h369.346V0.23H0v580.864h388.867v-16.27H16.274H16.27z
	 M702.085,162.936L558.091,352.491L417.344,162.94h-21.152l152.134,201.758L381.543,581.09h19.526l157.012-204.199L715.908,581.09
	h20.337L568.657,364.688l152.944-201.758H702.08L702.085,162.936z M785.063,724.278V463.951h1.626
	c9.766,37.964,29.019,68.472,57.764,91.523c28.745,23.047,65.352,34.575,109.824,34.575c28.745,0,54.238-5.83,76.475-17.49
	s40.811-27.524,55.728-47.593c14.912-20.068,26.304-43.389,34.17-69.966c7.861-26.572,11.797-54.507,11.797-83.789
	c0-31.46-4.072-60.479-12.207-87.051c-8.135-26.577-19.932-49.629-35.386-69.15c-15.459-19.526-34.17-34.717-56.138-45.557
	c-21.963-10.85-46.777-16.274-74.438-16.274c-21.152,0-40.811,3.12-58.979,9.355c-18.169,6.24-34.302,15.049-48.403,26.44
	c-14.185,11.479-26.53,25.059-36.611,40.269c-10.303,15.459-18.169,32.407-23.594,50.85h-1.626V162.936h-16.27v561.343H785.063
	L785.063,724.278z M954.277,574.586c-50.977,0-91.929-17.49-122.842-52.471s-46.372-85.288-46.372-150.913
	c0-27.119,3.799-52.881,11.392-77.285s18.574-45.83,32.944-64.268c14.375-18.442,32.139-33.086,53.286-43.931
	c21.152-10.85,45.02-16.274,71.592-16.274c27.119,0,50.85,5.425,71.187,16.274c20.337,10.845,37.153,25.625,50.439,44.336
	s23.32,40.137,30.103,64.268c6.777,24.136,10.166,49.761,10.166,76.88c0,24.409-3.115,48.682-9.355,72.813
	c-6.235,24.136-15.864,45.83-28.882,65.088c-13.013,19.248-29.688,34.976-50.029,47.183
	C1007.563,568.487,983.022,574.586,954.277,574.586L954.277,574.586z M1221.934,581.095V344.356c0-22.778,3.252-45.02,9.766-66.709
	c6.504-21.694,16.538-40.815,30.098-57.354c13.56-16.543,30.776-29.561,51.66-39.053c20.879-9.492,45.693-13.423,74.438-11.797
	v-16.27c-24.951-0.537-46.777,2.168-65.488,8.135c-18.716,5.967-34.849,14.102-48.408,24.409
	c-13.56,10.303-24.404,22.368-32.539,36.201c-8.129,13.811-14.161,28.753-17.9,44.336h-1.626v-103.32h-16.27V581.1h16.27V581.095z
	 M1408.232,375.27h349.819c1.089-28.745-1.758-56.401-8.54-82.979c-6.777-26.577-17.627-50.171-32.539-70.776
	c-14.917-20.61-34.17-37.153-57.764-49.629s-51.66-18.711-84.199-18.711c-23.325,0-46.104,4.883-68.34,14.648
	c-22.236,9.761-41.763,23.994-58.574,42.705s-30.371,41.626-40.674,68.75c-10.303,27.114-15.459,58.027-15.459,92.739
	c0,30.913,3.525,59.795,10.576,86.641s17.896,50.171,32.539,69.966c14.648,19.795,33.496,35.117,56.543,45.962
	c23.047,10.85,50.845,16.001,83.389,15.459c47.725,0,87.861-13.428,120.4-40.269c32.544-26.851,51.797-64.678,57.764-113.491h-16.27
	c-7.051,46.104-25.088,80.679-54.102,103.726c-29.019,23.052-65.488,34.575-109.424,34.575c-29.829,0-55.049-5.151-75.659-15.454
	c-20.605-10.303-37.422-24.409-50.439-42.305c-13.013-17.9-22.642-38.916-28.877-63.052
	C1412.163,429.645,1408.774,403.473,1408.232,375.27L1408.232,375.27z M1741.782,359h-333.545
	c1.621-29.287,7.046-55.591,16.265-78.911c9.224-23.325,21.289-43.257,36.206-59.795c14.912-16.543,32.271-29.15,52.065-37.832
	c19.795-8.677,41.084-13.018,63.862-13.018c27.119,0,50.977,5.02,71.592,15.054c20.605,10.034,37.827,23.73,51.66,41.084
	c13.828,17.354,24.268,37.559,31.318,60.605C1738.257,309.239,1741.782,333.512,1741.782,359L1741.782,359z M2095.674,286.598h16.27
	c0-46.646-13.56-80.542-40.674-101.694c-27.124-21.152-64.004-31.729-110.645-31.729c-26.035,0-47.998,3.257-65.898,9.766
	c-17.896,6.504-32.539,14.912-43.931,25.215c-11.387,10.303-19.521,21.694-24.404,34.17s-7.324,24.409-7.324,35.796
	c0,22.778,4.067,40.947,12.207,54.507c8.135,13.56,20.879,24.136,38.232,31.729c11.934,5.42,25.488,10.303,40.679,14.648
	c15.186,4.336,32.813,8.945,52.881,13.823c17.896,4.346,35.522,8.682,52.881,13.018c17.354,4.341,32.676,10.171,45.962,17.49
	c13.291,7.324,24.136,16.68,32.544,28.071c8.403,11.387,12.607,26.304,12.607,44.741c0,17.9-4.199,33.086-12.607,45.557
	c-8.337,12.41-19.309,22.829-32.134,30.513c-13.018,7.861-27.529,13.555-43.525,17.08c-16.001,3.525-31.592,5.288-46.777,5.288
	c-49.355,0-87.188-10.981-113.491-32.944c-26.304-21.968-39.453-56.543-39.453-103.73h-16.274c0,52.612,14.238,91.118,42.71,115.527
	c28.477,24.404,70.645,36.606,126.509,36.606c17.896,0,35.928-2.036,54.102-6.104c18.164-4.067,34.438-10.708,48.809-19.932
	c14.248-9.093,26.217-21.338,34.98-35.791c8.95-14.648,13.428-32.544,13.428-53.696c0-20.068-3.936-36.338-11.797-48.813
	c-7.866-12.471-18.169-22.778-30.918-30.913c-12.744-8.135-27.114-14.507-43.115-19.116c-16.091-4.637-32.229-9.112-48.408-13.428
	c-19.912-5.225-39.845-10.376-59.795-15.454c-17.08-4.341-32.944-9.492-47.588-15.459c-14.102-5.967-25.356-14.507-33.765-25.625
	s-12.607-26.982-12.607-47.593c0-3.794,1.084-10.576,3.252-20.337c2.168-9.766,7.324-19.663,15.459-29.697
	c8.135-10.029,20.605-18.979,37.422-26.846c16.812-7.861,39.863-11.797,69.15-11.797c20.067,0,38.369,2.173,54.912,6.509
	c16.543,4.341,30.781,11.255,42.71,20.747c11.934,9.492,21.152,21.558,27.661,36.201
	C2092.417,247.55,2095.674,265.445,2095.674,286.598L2095.674,286.598z M2472.339,286.598h16.27
	c0-46.646-13.555-80.542-40.674-101.694s-63.999-31.729-110.645-31.729c-26.03,0-47.998,3.257-65.894,9.766
	c-17.9,6.504-32.544,14.912-43.931,25.215c-11.392,10.303-19.526,21.694-24.409,34.17s-7.319,24.409-7.319,35.796
	c0,22.778,4.067,40.947,12.207,54.507c8.13,13.56,20.879,24.136,38.232,31.729c11.934,5.42,25.488,10.303,40.674,14.648
	c15.186,4.336,32.813,8.945,52.881,13.823c17.9,4.346,35.527,8.682,52.881,13.018c17.358,4.341,32.676,10.171,45.967,17.49
	c13.286,7.324,24.136,16.68,32.539,28.071c8.408,11.387,12.612,26.304,12.612,44.741c0,17.9-4.204,33.086-12.612,45.557
	c-8.336,12.41-19.306,22.828-32.129,30.513c-13.022,7.861-27.529,13.555-43.53,17.08c-15.996,3.525-31.592,5.288-46.777,5.288
	c-49.355,0-87.183-10.981-113.486-32.944c-26.309-21.968-39.458-56.543-39.458-103.73h-16.27c0,52.612,14.233,91.118,42.71,115.527
	c28.472,24.404,70.64,36.606,126.504,36.606c17.9,0,35.933-2.036,54.102-6.104c18.164-4.067,34.438-10.708,48.813-19.932
	c14.248-9.093,26.217-21.338,34.98-35.791c8.95-14.648,13.423-32.544,13.423-53.696c0-20.068-3.931-36.338-11.797-48.813
	c-7.861-12.471-18.164-22.778-30.913-30.913c-12.744-8.135-27.119-14.507-43.115-19.116c-16.091-4.637-32.229-9.112-48.408-13.428
	c-19.912-5.225-39.845-10.376-59.795-15.454c-17.085-4.341-32.949-9.492-47.593-15.459c-14.102-5.967-25.356-14.507-33.76-25.625
	c-8.408-11.118-12.612-26.982-12.612-47.593c0-3.794,1.084-10.576,3.257-20.337c2.168-9.766,7.324-19.663,15.454-29.697
	c8.135-10.029,20.61-18.979,37.422-26.846c16.816-7.861,39.863-11.797,69.155-11.797c20.068,0,38.369,2.173,54.912,6.509
	c16.543,4.341,30.776,11.255,42.71,20.747s21.152,21.558,27.661,36.201c6.509,14.648,9.766,32.544,9.766,53.696H2472.339z"/>
</svg>
