<?xml version="1.0" encoding="utf-8"?>
<!-- Generator: Adobe Illustrator 16.0.0, SVG Export Plug-In . SVG Version: 6.00 Build 0)  -->
<!DOCTYPE svg PUBLIC "-//W3C//DTD SVG 1.1//EN" "http://www.w3.org/Graphics/SVG/1.1/DTD/svg11.dtd">
<svg version="1.1" id="Layer_1" xmlns="http://www.w3.org/2000/svg" xmlns:xlink="http://www.w3.org/1999/xlink" x="0px" y="0px"
	 width="2634.263px" height="852.085px" viewBox="-64.812 -61.222 2634.263 852.085"
	 enable-background="new -64.812 -61.222 2634.263 852.085" xml:space="preserve">
<rect x="-64.812" y="-61.222" fill="#FFFFFF" stroke="#000000" stroke-miterlimit="10" width="2634.263" height="852.085"/>
<g>
	<path fill="#8E714E" d="M2327.7,295.284c-2.246,0.449-4.502,5.405-4.502,8.105c-0.449,18.027-0.898,65.791-0.898,98.232
		c0,0.903,1.348,2.705,2.7,2.705c6.758,0.449,22.979,0.898,36.948,0.898c19.375,0,30.64-2.7,36.953-5.4
		c16.216-8.115,23.877-25.688,23.877-45.068c0-43.701-30.64-60.376-76.152-60.376C2343.472,293.932,2334.468,293.932,2327.7,295.284
		L2327.7,295.284z M2443.96,496.7c0-44.609-32.896-69.395-92.373-69.395c-2.705,0-21.631-0.449-26.138,0.449
		c-1.353,0.454-3.149,1.357-3.149,2.71c0,31.987-0.454,82.91,0.898,102.734c0.898,8.56,7.212,20.728,14.873,24.331
		c8.105,4.507,26.582,5.405,39.199,5.405C2412.866,562.936,2443.96,543.111,2443.96,496.7L2443.96,496.7z M2235.786,270.504
		c4.502,0,18.018,1.348,52.715,1.348c32.896,0,59.028-0.898,91.021-0.898c39.199,0,93.271,13.965,93.271,72.544
		c0,28.838-20.278,51.821-46.86,63.086c-1.348,0.449-1.348,1.348,0,1.797c37.847,9.468,71.196,32.896,71.196,77.051
		c0,43.262-27.036,70.747-66.24,87.871c-23.882,10.361-53.618,13.965-83.809,13.965c-22.983,0-84.712-2.7-118.955-1.797
		c-3.604-1.357,3.154-17.578,6.304-20.278c8.115-0.454,14.419-0.903,22.983-3.608c12.168-3.149,13.516-6.758,15.317-25.229
		c0.903-15.771,0.903-71.65,0.903-111.299c0-54.521,0.454-91.47,0-109.492c-0.449-13.965-5.405-18.477-15.317-21.182
		c-7.666-1.348-20.278-3.154-30.645-4.502C2225.415,287.623,2233.076,272.301,2235.786,270.504L2235.786,270.504z M1975.786,550.772
		c10.82,8.555,31.997,12.158,50.923,12.158c24.331,0,48.662-4.497,72.095-25.684c23.882-21.621,40.552-54.966,40.552-108.135
		c0-50.923-19.375-92.378-59.028-116.704c-22.529-13.975-51.367-19.824-84.712-19.824c-9.912,0-19.375,0.449-25.229,3.149
		c-1.357,0.903-4.507,4.956-4.507,7.207c-0.903,9.014-0.903,78.403-0.903,118.96c0,41.904,0,100.483,0.903,107.241
		c0,6.763,3.149,17.124,9.912,21.631H1975.786z M1873.501,270.499c8.564,0,41.455,1.353,57.227,1.353
		c28.394,0,48.667-1.348,102.285-1.348c45.059,0,82.91,12.163,109.946,35.142c32.891,28.389,50.02,67.593,50.02,115.352
		c0,68.042-31.094,107.246-62.188,129.775c-31.084,22.979-71.641,36.494-129.316,36.494c-30.64,0-83.359-0.898-127.07-1.353h-0.449
		c-2.251-4.053,3.604-19.824,7.207-20.273c11.719-1.353,14.873-1.807,20.732-4.053c9.458-3.608,11.265-8.564,12.617-25.234
		c1.348-31.094,0.898-68.491,0.898-110.85c0-30.186,0.449-89.219-0.454-108.145c-1.348-15.767-8.105-19.824-21.626-22.529
		c-6.758-1.348-15.771-3.154-28.384-4.502c-1.807-3.159,6.304-17.124,8.555-19.824V270.499z"/>
	<path fill="#442D22" d="M1328.286,568.341c-11.265-1.353-19.375-3.149-29.287-7.656c-1.353-0.903-3.608-5.405-3.608-7.212
		c-0.898-15.771-0.898-60.83-0.898-91.016c0-24.336-4.053-45.513-14.419-60.381c-12.168-17.129-29.736-27.036-52.271-27.036
		c-19.824,0-46.411,13.516-68.491,32.441c-0.449,0.449-4.053,3.608-3.604-1.353c0-4.956,0.903-14.868,1.353-21.631
		c0.454-6.309-3.154-9.458-3.154-9.458c-14.419,7.207-54.971,16.67-69.844,18.018c-10.811,2.261-13.516,12.622-2.246,16.226h0.449
		c12.158,3.604,20.273,7.661,26.577,11.719c4.507,3.604,4.058,8.56,4.058,12.617c0.449,33.789,0.449,85.61-0.898,113.999
		c-0.449,11.265-3.604,15.317-11.719,17.119l0.903-0.449c-6.309,1.353-11.265,2.7-18.926,3.604c-2.705,2.705-2.705,17.124,0,20.278
		c4.956,0,31.089-1.353,52.725-1.353c29.736,0,45.059,1.353,52.715,1.353c3.154-3.604,4.058-17.124,2.256-20.278
		c-8.564-0.449-14.873-1.348-20.728-3.154c-8.11-1.807-10.366-5.854-10.82-15.317c-0.894-23.887-0.894-74.351-0.894-108.594
		c0-9.463,2.7-13.97,5.4-16.675c10.366-9.009,27.041-15.317,41.909-15.317c14.419,0,23.877,4.507,31.089,10.366
		c9.912,8.105,13.066,19.824,14.419,28.384c2.251,19.375,1.353,57.676,1.353,91.021c0,18.022-1.353,22.529-8.105,24.78
		c-3.159,1.353-11.27,3.159-20.732,4.053c-3.154,3.159-2.251,17.129,0,20.283c13.066,0,28.389-1.353,50.918-1.353
		c27.935,0,45.962,1.353,53.174,1.353C1329.185,585.016,1330.088,571.949,1328.286,568.341L1328.286,568.341z M1453.101,396.222
		c-23.877,0-38.75,18.472-38.75,47.305c0,29.292,13.066,63.086,50.015,63.086c6.309,0,18.027-2.705,23.428-9.014
		c8.564-8.105,14.424-24.331,14.424-41.455c0-37.397-18.477-59.927-49.116-59.927V396.222z M1449.946,595.377
		c-9.009,0-15.322,2.705-19.375,4.961c-18.926,12.158-27.485,23.877-27.485,37.852c0,13.062,4.956,23.423,15.771,32.437
		c13.066,11.265,31.089,16.675,54.067,16.675c45.962,0,66.24-24.785,66.24-49.111c0-17.129-8.564-28.394-26.133-34.697
		C1500.415,598.082,1477.437,595.377,1449.946,595.377L1449.946,595.377z M1453.101,712.535c-27.485,0-47.314-5.859-64.434-18.926
		c-16.675-12.617-23.882-31.543-23.882-44.609c0-3.604,0.903-13.521,9.014-22.529c4.951-5.41,15.771-15.771,41.455-33.345
		c0.898-0.449,1.348-0.898,1.348-1.807c0-0.898-0.903-1.802-1.802-2.246c-21.177-8.11-27.485-21.182-29.292-28.389v-0.903
		c-0.444-2.705-1.348-5.405,2.71-8.11c3.154-2.251,7.661-4.956,12.612-8.105c7.661-4.512,15.771-9.468,20.728-13.525
		c0.903-0.898,0.903-1.797,0.903-2.7s-0.903-1.807-1.807-2.251c-31.533-10.366-47.305-33.799-47.305-68.945
		c0-22.979,10.361-43.706,28.833-56.772c12.617-9.912,44.16-22.08,64.888-22.08h1.353c21.177,0.449,32.891,4.956,49.561,10.815
		c9.014,3.154,17.578,4.502,29.297,4.502c17.568,0,25.229-5.405,31.533-11.709c0.454,0.898,1.357,3.154,1.807,9.009
		c0.449,5.859-1.353,14.419-5.859,20.728c-3.604,4.956-11.714,8.564-19.824,8.564h-2.256c-8.11-0.903-11.719-1.807-11.719-1.807
		l-1.797,0.903c-0.449,0.903,0,1.802,0.449,3.154l0.454,0.903c0.898,4.053,2.7,16.216,2.7,19.375
		c0,36.948-14.868,53.164-30.64,65.332c-15.322,11.265-32.891,18.472-52.72,20.278c-0.449,0-2.246,0-6.309,0.449
		c-2.251,0-5.405,0.454-5.859,0.454h-0.449c-3.604,0.898-12.612,5.405-12.612,13.062c0,6.758,4.053,14.873,23.428,16.226
		c4.053,0.449,8.105,0.449,12.617,0.903c25.684,1.797,57.676,4.053,72.544,9.009c20.728,7.656,33.794,26.133,33.794,48.213
		c0,33.35-23.877,64.438-63.53,83.809C1493.657,708.028,1474.277,712.535,1453.101,712.535L1453.101,712.535z M1709.937,398.473
		c-9.458,0-18.022,2.246-24.331,6.753c-17.568,10.815-26.582,32.446-26.582,63.984c0,59.033,29.736,100.488,72.095,100.488
		c12.617,0,22.529-3.608,31.089-10.815c13.066-10.82,19.829-32.446,19.829-62.637c0-58.574-29.292-97.778-72.095-97.778
		L1709.937,398.473z M1718.052,591.324c-76.602,0-104.087-56.323-104.087-109.043c0-36.948,14.868-65.337,44.604-85.615
		c21.182-13.066,46.416-20.273,68.945-20.273c58.574,0,99.58,41.904,99.58,102.285c0,41.001-16.221,73.442-47.314,93.271
		c-14.868,9.912-40.552,19.375-61.733,19.375H1718.052L1718.052,591.324z M915.093,398.468c-9.463,0-18.022,2.251-24.336,6.758
		c-17.568,10.815-26.582,32.446-26.582,63.984c0,59.033,29.736,100.488,72.095,100.488c12.617,0,22.529-3.608,31.094-10.815
		c13.062-10.82,19.824-32.446,19.824-62.637C987.188,437.672,958.35,398.468,915.093,398.468L915.093,398.468z M923.203,591.324
		c-76.602,0-104.087-56.323-104.087-109.043c0-36.948,14.868-65.337,44.604-85.615c21.182-13.066,46.416-20.273,68.945-20.273
		c58.579,0,99.58,41.904,99.58,102.285c0,41.001-16.221,73.442-47.314,93.271C970.513,581.861,944.829,591.324,923.203,591.324
		L923.203,591.324z M408.174,586.817c-0.903-1.348-1.807-5.405-1.353-10.361c0-3.608,0.903-5.859,1.353-6.758
		c9.463-1.357,14.419-2.71,19.824-4.058c9.014-2.256,12.617-7.207,13.066-18.472c1.357-27.036,1.357-78.408,0.903-114.004v-0.903
		c0-4.053,0-9.014-4.956-12.617c-7.212-4.502-15.771-8.555-27.036-11.719c-4.053-1.343-6.758-3.599-6.309-6.299
		c0-2.705,2.705-5.859,8.564-6.763c14.868-1.353,53.613-10.811,68.936-17.573c0.903,0.898,2.256,3.608,2.256,7.212l-0.449,4.951
		c-0.454,4.961-0.903,10.82-0.903,16.675c0,1.802,1.807,3.154,3.604,3.154c0.903,0,1.807-0.449,2.705-0.903
		c28.838-22.529,54.971-30.64,68.486-30.64c22.085,0,39.209,10.366,52.275,31.992c0.898,1.357,1.802,1.807,3.154,1.807
		c0.898,0,2.246-0.449,2.7-1.353c26.587-20.278,53.174-32.446,70.742-32.446c41.904,0,66.689,31.094,66.689,83.813
		c0,14.868,0,34.243-0.449,51.821c0,15.767-0.449,30.186-0.449,40.552c0,2.246,3.149,9.458,8.105,10.811
		c6.309,3.154,14.873,4.507,26.138,6.309h0.449c0.903,3.154-0.898,14.868-2.7,17.124c-2.705,0-6.763,0-11.265-0.449
		c-11.406-0.595-22.826-0.896-34.248-0.903c-27.935,0-42.354,0.449-56.328,1.353c-0.894-3.604-1.348-14.419,0-17.124
		c8.115-1.348,12.168-2.705,17.129-4.053c9.014-2.705,11.265-6.763,11.719-18.477c0-8.56,1.797-81.558-0.908-99.131
		c-2.7-18.022-16.221-39.199-45.962-39.199c-11.265,0-28.833,4.507-45.957,17.568c-0.898,0.903-1.807,3.154-1.807,4.507v0.454
		c1.807,9.458,1.807,20.278,1.807,36.948v29.287c0,20.278-0.454,39.204,0,53.618c0,9.917,5.859,12.168,10.815,13.975
		c2.705,0.444,4.502,0.898,6.758,1.348c4.053,0.903,8.11,1.807,14.419,3.154c0.903,1.807,0.903,7.661-0.449,12.617
		c-0.454,2.705-1.357,4.053-1.807,4.507c-15.317-0.449-31.089-0.903-54.067-0.903c-6.758,0-18.477,0.454-28.389,0.454
		c-8.115,0-15.771,0.449-20.273,0.449c-0.454-0.903-1.357-4.053-1.357-9.014c0-4.053,0.903-7.207,1.807-8.11
		c2.251-0.449,4.053-0.898,6.309-0.898c5.4-0.903,9.912-1.807,14.414-2.705c7.666-2.251,10.366-6.309,10.815-16.221
		c1.353-22.529,2.705-86.963-0.449-103.188c-5.405-26.133-20.273-39.199-44.16-39.199c-13.965,0-31.543,6.758-45.957,17.578
		c-2.256,1.797-4.058,6.299-4.058,10.356v26.587c0,32.441,0,72.998,0.449,90.571c0.454,5.4,2.251,11.714,12.617,13.965
		c2.256,0.449,5.859,1.353,10.366,1.807l8.105,1.348c0.908,2.705,0.454,13.521-1.348,17.124c-4.507,0-9.912-0.449-16.226-0.449
		c-9.458-0.454-21.626-0.903-35.142-0.903c-15.771,0-27.036,0.449-36.05,0.903C418.535,586.817,413.579,586.817,408.174,586.817
		L408.174,586.817z"/>
	<path fill="#FFFFFF" d="M171.157,694.962l-18.472-6.313c0,0,2.256-94.17-31.543-100.928
		c-22.524-26.138,3.613-1108.462,84.717-3.608c0,0-27.939,13.965-32.896,37.852C167.554,645.396,171.157,694.962,171.157,694.962
		L171.157,694.962z"/>
	<path fill="#A6A385" d="M171.157,694.962l-18.472-6.313c0,0,2.256-94.17-31.543-100.928
		c-22.524-26.138,3.613-1108.462,84.717-3.608c0,0-27.939,13.965-32.896,37.852C167.554,645.396,171.157,694.962,171.157,694.962
		L171.157,694.962z"/>
	<path fill="#FFFFFF" d="M181.074,603.941c0,0,161.768-106.343,123.911-327.588C268.491,115.499,182.427,62.779,172.964,42.501
		c-10.361-14.419-20.278-39.648-20.278-39.648l6.763,447.432c0,0.454-13.97,136.982,21.631,153.662"/>
	<path fill="#499D4A" d="M181.074,603.941c0,0,161.768-106.343,123.911-327.588C268.491,115.499,182.427,62.779,172.964,42.501
		c-10.361-14.419-20.278-39.648-20.278-39.648l6.763,447.432c0,0.454-13.97,136.982,21.631,153.662"/>
	<path fill="#FFFFFF" d="M143.228,609.796c0,0-151.855-103.638-142.842-286.123c8.56-182.49,115.801-272.158,136.528-288.379
		c13.521-14.419,13.97-19.829,14.873-34.248c9.463,20.278,7.661,303.252,9.009,336.592
		C164.849,466.056,153.589,585.47,143.228,609.796z"/>
	<path fill="#58AA50" d="M143.228,609.796c0,0-151.855-103.638-142.842-286.123c8.56-182.49,115.801-272.158,136.528-288.379
		c13.521-14.419,13.97-19.829,14.873-34.248c9.463,20.278,7.661,303.252,9.009,336.592
		C164.849,466.056,153.589,585.47,143.228,609.796z"/>
</g>
</svg>
