<?xml version="1.0" encoding="utf-8"?>
<!-- Generator: Adobe Illustrator 16.0.0, SVG Export Plug-In . SVG Version: 6.00 Build 0)  -->
<!DOCTYPE svg PUBLIC "-//W3C//DTD SVG 1.1//EN" "http://www.w3.org/Graphics/SVG/1.1/DTD/svg11.dtd">
<svg version="1.1" id="Layer_1" xmlns="http://www.w3.org/2000/svg" xmlns:xlink="http://www.w3.org/1999/xlink" x="0px" y="0px"
	 width="2500px" height="1733px" viewBox="0 0 2500 1733" enable-background="new 0 0 2500 1733" xml:space="preserve">
<path fill="none" d="M-18.458,0h2500v1733h-2500V0z"/>
<path fill="#5D87A1" d="M761.801,1289.664h-67.682c-2.396-114.242-8.985-221.646-19.763-322.285h-0.604l-103.047,322.285h-51.529
	l-102.43-322.285h-0.589c-7.599,96.626-12.385,204.054-14.374,322.285h-61.692c3.976-143.774,13.968-278.563,29.938-404.38h83.887
	l97.632,297.135h0.604l98.23-297.135h80.268C748.226,1032.655,758.609,1167.457,761.801,1289.664 M1055.325,991.313
	c-27.561,149.541-63.915,258.198-109.037,326.024c-35.155,52.21-73.672,78.342-115.615,78.342c-11.182,0-24.979-3.375-41.328-10.071
	v-36.058c7.991,1.151,17.368,1.806,28.146,1.806c19.592,0,35.338-5.389,47.345-16.188c14.36-13.157,21.54-27.949,21.54-44.313
	c0-11.222-5.598-34.16-16.768-68.896L795.335,991.3h66.491l53.309,172.508c11.98,39.171,16.979,66.521,14.979,82.099
	c29.148-77.857,49.516-162.751,61.113-254.615h64.102L1055.325,991.313L1055.325,991.313z"/>
<path fill="#F8981D" d="M1956.249,1289.664h-192.256v-404.38h64.674v354.603h127.582V1289.664z M1713.666,1299.434l-74.339-36.686
	c6.592-5.415,12.896-11.274,18.571-18.063c31.599-37.113,47.354-92.009,47.354-164.713c0-133.78-52.498-200.705-157.531-200.705
	c-51.506,0-91.683,16.979-120.416,50.941c-31.568,37.143-47.328,91.838-47.328,164.149c0,71.082,13.968,123.228,41.916,156.304
	c25.565,29.963,64.108,44.965,115.651,44.965c19.229,0,36.869-2.354,52.942-7.104l96.781,56.348L1713.666,1299.434z
	 M1472.849,1208.746c-16.374-26.341-24.562-68.637-24.562-126.955c0-101.817,30.931-152.784,92.858-152.784
	c32.365,0,56.095,12.188,71.266,36.52c16.349,26.379,24.574,68.297,24.574,125.804c0,102.654-30.957,153.988-92.849,153.988
	C1511.758,1245.327,1488.033,1233.177,1472.849,1208.746 M1351.793,1177.579c0,34.293-12.582,62.425-37.72,84.463
	c-25.163,21.945-58.906,32.944-101.189,32.944c-39.55,0-77.896-12.638-115.014-37.771l17.382-34.725
	c31.938,15.996,60.854,23.947,86.816,23.947c24.361,0,43.403-5.401,57.219-16.112c13.798-10.751,22.024-25.831,22.024-44.899
	c0-24.025-16.758-44.559-47.488-61.758c-28.342-15.563-85.024-48.104-85.024-48.104c-30.722-22.391-46.103-46.429-46.103-86.027
	c0-32.774,11.47-59.233,34.423-79.361c22.979-20.206,52.629-30.277,88.975-30.277c37.536,0,71.658,10.062,102.396,29.966
	l-15.593,34.734c-26.287-11.169-52.233-16.753-77.832-16.753c-20.729,0-36.734,4.982-47.864,14.987
	c-11.226,9.967-18.144,22.718-18.144,38.356c0,23.907,17.106,44.703,48.682,62.241c28.722,15.59,86.813,48.691,86.813,48.691
	C1336.059,1114.475,1351.793,1138.291,1351.793,1177.579"/>
<path fill="#5D87A1" d="M2037.44,749.842c-39.104-0.994-69.381,2.942-94.793,13.693c-7.338,2.93-19.004,2.93-20.023,12.202
	c3.963,3.924,4.42,10.254,7.859,15.668c5.856,9.771,16.074,22.914,25.396,29.768c10.241,7.847,20.521,15.616,31.299,22.456
	c19.002,11.758,40.543,18.598,59.063,30.316c10.79,6.813,21.515,15.629,32.316,22.966c5.312,3.911,8.709,10.254,15.604,12.699v-1.49
	c-3.452-4.396-4.436-10.751-7.82-15.646l-14.674-14.147c-14.178-19.042-31.795-35.665-50.799-49.319
	c-15.645-10.776-49.854-25.425-56.198-43.447l-0.994-0.99c10.751-1.011,23.504-4.904,33.719-7.899
	c16.623-4.381,31.779-3.388,48.836-7.769c7.849-1.966,15.629-4.425,23.502-6.844v-4.404c-8.843-8.806-15.146-20.494-24.442-28.813
	c-24.875-21.487-52.288-42.505-80.617-60.096c-15.171-9.796-34.684-16.104-50.836-24.436c-5.818-2.938-15.629-4.394-19.057-9.283
	c-8.766-10.75-13.692-24.9-20.052-37.629c-14.125-26.852-27.845-56.645-40.03-85.035c-8.815-19.043-14.182-38.062-24.933-55.679
	c-50.353-83.05-105.033-133.351-189.077-182.723c-18.063-10.279-39.551-14.661-62.504-20.049l-36.657-1.936
	c-7.819-3.427-15.653-12.726-22.48-17.12c-27.884-17.578-99.673-55.676-120.182-5.376c-13.211,31.795,19.537,63.053,30.785,79.18
	c8.309,11.191,19.068,23.934,24.877,36.646c3.438,8.308,4.406,17.12,7.85,25.896c7.818,21.502,15.132,45.422,25.411,65.481
	c5.359,10.229,11.209,20.979,18.063,30.237c3.924,5.415,10.75,7.81,12.241,16.637c-6.813,9.73-7.352,24.417-11.261,36.636
	c-17.577,55.203-10.714,123.595,14.2,164.163c7.798,12.216,26.396,39.104,51.271,28.8c22.024-8.789,17.146-36.634,23.479-61.055
	c1.45-5.896,0.495-9.77,3.429-13.641v0.955c6.813,13.667,13.689,26.837,20.01,40.544c15.158,23.921,41.552,48.849,63.537,65.419
	c11.705,8.842,20.978,23.96,35.639,29.361v-1.466h-0.968c-2.969-4.384-7.313-6.346-11.208-9.743
	c-8.813-8.803-18.572-19.553-25.412-29.313c-20.479-27.373-38.605-57.677-54.694-88.945c-7.873-15.174-14.659-31.758-21.004-46.898
	c-2.957-5.848-2.957-14.661-7.857-17.604c-7.354,10.736-18.063,20.035-23.425,33.192c-9.3,21.043-10.27,46.927-13.723,73.842
	l-1.923,0.941c-15.563-3.91-20.978-20.011-26.89-33.678c-14.636-34.711-17.095-90.43-4.396-130.476
	c3.4-10.239,18.114-42.492,12.242-52.25c-2.94-9.351-12.727-14.674-18.088-22.036c-6.306-9.261-13.21-20.979-17.604-31.259
	c-11.719-27.349-17.614-57.648-30.234-84.982c-5.898-12.738-16.143-25.924-24.436-37.653c-9.312-13.184-19.552-22.47-26.913-38.099
	c-2.435-5.375-5.849-14.164-1.938-20.011c0.955-3.923,2.941-5.388,6.841-6.369c6.33-5.349,24.418,1.452,30.761,4.395
	c18.114,7.324,33.261,14.164,48.38,24.418c6.843,4.904,14.179,14.19,22.952,16.636h10.279c15.604,3.4,33.193,0.942,47.881,5.362
	c25.884,8.318,49.332,20.521,70.363,33.689c63.993,40.583,116.766,98.245,152.393,167.118c5.85,11.224,8.332,21.501,13.668,33.206
	c10.293,23.96,23.021,48.395,33.231,71.842c10.267,22.953,20.05,46.393,34.711,65.459c7.313,10.255,36.688,15.63,49.854,21.006
	c9.744,4.382,24.914,8.276,33.703,13.652c16.623,10.24,33.183,21.998,48.812,33.261
	C2011.532,727.844,2035.989,740.059,2037.44,749.842 M1539.066,325.256c-6.746-0.07-13.475,0.757-19.998,2.459v0.98h0.938
	c3.938,7.809,10.776,13.223,15.654,20.037c3.938,7.834,7.351,15.603,11.209,23.424l0.939-0.968
	c6.895-4.883,10.317-12.699,10.317-24.435c-2.969-3.453-3.427-6.827-5.896-10.254
	C1549.358,331.612,1543.016,329.18,1539.066,325.256"/>
<path fill="#F8981D" d="M2083.976,1314.599h10.123v-49.542h-15.185l-12.386,33.812l-13.458-33.812h-14.622v49.542h9.561v-37.689
	h0.537l14.098,37.689h7.285l14.049-37.689L2083.976,1314.599L2083.976,1314.599z M2002.431,1314.599h10.711v-41.146h14.021v-8.41
	h-39.34v8.41h14.583L2002.431,1314.599L2002.431,1314.599z"/>
<rect x="716.266" y="1556.887" fill="none" width="1103.111" height="190.113"/>
<text transform="matrix(0.9317 0 0 1 496.2656 1725.2666)" fill="#FCFCFC" font-family="'MyriadPro-Bold'" font-size="291.5968">REVIEWING</text>
</svg>
