<?xml version="1.0" encoding="utf-8"?>
<!-- Generator: Adobe Illustrator 16.0.0, SVG Export Plug-In . SVG Version: 6.00 Build 0)  -->
<!DOCTYPE svg PUBLIC "-//W3C//DTD SVG 1.1//EN" "http://www.w3.org/Graphics/SVG/1.1/DTD/svg11.dtd">
<svg version="1.1" id="Lager_1" xmlns="http://www.w3.org/2000/svg" xmlns:xlink="http://www.w3.org/1999/xlink" x="0px" y="0px"
	 width="816.992px" height="800px" viewBox="0 0 816.992 800" enable-background="new 0 0 816.992 800" xml:space="preserve">
<g>
	<path fill="#81CF08" d="M409.705,787.92c-11.416,0-21.563-2.425-31.712-8.486l-98.943-55.764
		c-15.222-8.486-7.61-10.912-2.537-12.124c20.296-7.274,24.103-8.486,44.397-19.396c2.538-1.212,5.075-1.212,7.611,1.213
		l76.111,43.642c2.536,1.213,6.343,1.213,8.878,0l296.826-163.655c2.538-1.212,5.077-4.85,5.077-7.273v-327.31
		c0-3.636-1.269-6.061-5.077-7.272L414.778,66.627c-2.536-1.213-6.34-1.213-8.878,0L109.073,229.069
		c-2.537,1.213-5.075,4.848-5.075,7.273v327.31c0,2.424,1.269,6.06,5.075,7.272l81.183,44.854
		c44.397,20.61,71.036-3.638,71.036-29.095V265.438c0-4.849,3.806-8.486,8.879-8.486h38.055c5.075,0,8.88,3.636,8.88,8.486v322.459
		c0,56.977-31.714,88.495-87.524,88.495c-17.761,0-30.445,0-68.5-18.184l-77.377-42.43c-19.028-10.91-31.712-30.307-31.712-52.127
		v-327.31c0-20.609,11.416-41.217,31.712-52.128L380.531,20.56c19.027-9.698,44.396-9.698,62.158,0l296.823,163.656
		c19.028,10.911,31.714,30.306,31.714,52.128v327.31c0,20.607-11.417,41.216-31.714,52.127L441.418,780.646
		C431.269,785.495,421.122,787.92,409.705,787.92z"/>
	<path fill="#81CF08" d="M502.306,562.439c-129.386,0-157.292-56.977-157.292-104.256c0-4.849,3.806-8.484,8.879-8.484h38.057
		c3.804,0,7.61,2.423,8.879,7.271c5.073,37.582,22.832,55.766,101.478,55.766c62.156,0,88.794-13.335,88.794-44.853
		c0-18.185-7.612-31.52-105.286-41.217c-81.183-7.275-131.923-24.244-131.923-87.283c0-56.977,50.742-90.92,135.729-90.92
		c95.137,0,142.07,31.519,148.414,99.406c0,2.423-1.268,4.848-2.538,6.061c-1.268,1.212-3.803,2.425-6.341,2.425H591.1
		c-3.806,0-7.612-2.425-8.88-6.061c-8.882-38.792-31.713-52.127-92.603-52.127c-68.498,0-76.109,23.032-76.109,40.004
		c0,20.608,8.879,26.669,101.479,38.792c91.329,10.912,134.46,27.884,134.46,88.496C649.45,527.285,596.172,562.439,502.306,562.439
		z"/>
</g>
</svg>
