<?xml version="1.0" encoding="utf-8"?>
<!-- Generator: Adobe Illustrator 16.0.0, SVG Export Plug-In . SVG Version: 6.00 Build 0)  -->
<!DOCTYPE svg PUBLIC "-//W3C//DTD SVG 1.1//EN" "http://www.w3.org/Graphics/SVG/1.1/DTD/svg11.dtd">
<svg version="1.1" id="Layer_1" xmlns="http://www.w3.org/2000/svg" xmlns:xlink="http://www.w3.org/1999/xlink" x="0px" y="0px"
	 width="2664.266px" height="1809.18px" viewBox="0 0 2664.266 1809.18" enable-background="new 0 0 2664.266 1809.18"
	 xml:space="preserve">
<g>
	<ellipse fill="#8993BE" cx="1332.282" cy="738.161" rx="1250" ry="650.684"/>
	<path fill="#232531" d="M433.307,1123.434l136.991-693.497h316.771c136.979,8.564,205.479,77.054,205.479,196.927
		c0,205.479-162.666,325.343-308.223,316.775H630.229l-34.247,179.795H433.307L433.307,1123.434z M664.47,815.221l42.813-256.854
		H818.58c59.933,0,102.733,25.685,102.733,77.052c-8.558,145.556-77.054,171.239-154.104,179.804H664.479L664.47,815.221
		L664.47,815.221z M1060.72,943.639l136.98-693.487h162.675l-34.25,179.785h154.102c136.99,8.564,188.357,77.055,171.238,162.68
		l-59.932,351.022h-171.23l59.938-316.775c8.555-42.813,8.555-68.495-51.367-68.495h-128.428l-77.05,385.271H1060.72
		L1060.72,943.639z M1580.573,1123.434l136.98-693.497h316.777c136.992,8.564,205.482,77.054,205.482,196.927
		c0,205.479-162.676,325.343-308.225,316.775h-154.109l-34.248,179.795H1580.573L1580.573,1123.434z M1811.725,815.221
		l42.813-256.854h111.309c59.934,0,102.734,25.685,102.734,77.052c-8.555,145.556-77.051,171.239-154.104,179.804h-102.742
		L1811.725,815.221L1811.725,815.221z"/>
</g>
<path fill="#8993BE" d="M1847.282,558.004l-42.803,256.855c0,0,205.992,15.04,240.215-92.124
	c34.221-107.164,25.186-164.731-86.113-164.731H1847.282L1847.282,558.004z"/>
<path fill="#8993BE" d="M691.281,558.004l-42.806,256.855c0,0,205.994,15.04,240.218-92.124
	c34.221-107.164,25.186-164.731-86.113-164.731H691.281L691.281,558.004z"/>
<rect x="716.228" y="1624.661" fill="none" width="1117.289" height="184.519"/>
<text transform="matrix(0.9481 0 0 1 562.2163 1775.7783)" fill="#FFFFFF" font-family="'MyriadPro-Bold'" font-size="324.8051">LEARNING</text>
</svg>
