<?xml version="1.0" encoding="utf-8"?>
<!-- Generator: Adobe Illustrator 16.0.0, SVG Export Plug-In . SVG Version: 6.00 Build 0)  -->
<!DOCTYPE svg PUBLIC "-//W3C//DTD SVG 1.1//EN" "http://www.w3.org/Graphics/SVG/1.1/DTD/svg11.dtd">
<svg version="1.1" id="Layer_2" xmlns="http://www.w3.org/2000/svg" xmlns:xlink="http://www.w3.org/1999/xlink" x="0px" y="0px"
	 width="3618.601px" height="3618.6px" viewBox="0 0 3618.601 3618.6" enable-background="new 0 0 3618.601 3618.6"
	 xml:space="preserve">
<circle fill="#00D8FF" cx="1806.5" cy="1807.1" r="302.6"/>
<path fill="none" stroke="#00D8FF" stroke-width="144.7456" stroke-miterlimit="10" d="M1806.5,1191.9
	c406.201,0,783.601,58.3,1068.101,156.199c342.799,118,553.6,296.9,553.6,458.9c0,168.8-223.4,358.9-591.5,480.8
	c-278.301,92.2-644.6,140.4-1030.201,140.4c-395.399,0-769.7-45.2-1051.2-141.4c-356.1-121.7-570.6-314.2-570.6-479.8
	c0-160.7,201.3-338.2,539.3-456C1009.601,1251.5,1396.3,1191.9,1806.5,1191.9L1806.5,1191.9z"/>
<path fill="none" stroke="#00D8FF" stroke-width="144.7456" stroke-miterlimit="10" d="M1271,1501.3
	c202.9-351.899,442-649.7,669-847.2c273.5-238,533.801-331.199,674.102-250.3c146.199,84.3,199.299,372.8,121,752.7
	c-59.201,287.2-200.4,628.5-393.102,962.6c-197.5,342.5-423.699,644.2-647.599,840c-283.3,247.7-557.3,337.301-700.7,254.601
	c-139.2-80.3-192.4-343.3-125.7-695C924.4,2221.301,1066,1856.601,1271,1501.3L1271,1501.3z"/>
<path fill="none" stroke="#00D8FF" stroke-width="144.7456" stroke-miterlimit="10" d="M1271.5,2119.8
	C1068,1768.2,929.4,1412.4,871.6,1117.1C802,761.3,851.2,489.2,991.399,408.1c146.101-84.6,422.5,13.5,712.5,271
	c219.301,194.7,444.401,487.5,637.6,821.301c198.102,342.199,346.602,688.8,404.301,980.5c73.1,369.199,13.9,651.3-129.4,734.199
	c-139.1,80.5-393.5-4.699-664.9-238.199C1722.3,2779.6,1477,2474.8,1271.5,2119.8L1271.5,2119.8z"/>
</svg>
